<?xml version="1.0"?>
<svg width="48" height="48" xmlns="http://www.w3.org/2000/svg" xmlns:svg="http://www.w3.org/2000/svg" xmlns:xlink="http://www.w3.org/1999/xlink" xml:space="preserve">
 <!-- Created with SVG-edit - https://github.com/SVG-Edit/svgedit-->
 <defs>
  <symbol id="svg_2" viewBox="0 0 361 104.2" x="0px" xml:space="preserve" xmlns="http://www.w3.org/2000/svg" xmlns:xlink="http://www.w3.org/1999/xlink" y="0px">
   <style type="text/css">.logo-m{fill:#1870f0;}
  .logo-text{fill:#15141a;}</style>
   <style class="darkreader darkreader--sync" media="screen"/>
   <g class="logo-m">
    <path d="m40.3,0l-28.6,92.1l-11.7,0l28.5,-92.1l11.8,0z"/>
    <path d="m50.7,0l0,92.1l-10.4,0l0,-92.1l10.4,0z"/>
    <path d="m101.4,0l0,92.1l-10.4,0l0,-92.1l10.4,0z"/>
    <path d="m91,0l-28.5,92.1l-11.7,0l28.5,-92.1l11.7,0z"/>
    <path d="m294,95.4l67,0l0,8.8l-67,0l0,-8.8z"/>
   </g>
   <g class="logo-text">
    <path d="m198.7,72.8l-17.1,0l0,-5.5l3.8,0l0,-15.8c0,-3.7 -0.7,-6.3 -2.1,-7.9c-1.4,-1.6 -3.3,-2.3 -5.7,-2.3c-3.2,0 -5.6,1.1 -7.2,3.4s-2.4,4.6 -2.5,6.9l0,15.6l6,0l0,5.5l-17.1,0l0,-5.5l3.8,0l0,-15.7c0,-3.8 -0.7,-6.4 -2.1,-7.9c-1.4,-1.5 -3.3,-2.3 -5.6,-2.3c-3.2,0 -5.5,1.1 -7.2,3.3c-1.6,2.2 -2.4,4.5 -2.5,6.9l0,15.8l6.9,0l0,5.5l-20.2,0l0,-5.5l6,0l0,-25.3l-6.1,0l0,-5.6l13.4,0l0,6.4c1.2,-2.1 2.7,-3.8 4.7,-5.2c2,-1.3 4.4,-2 7.3,-2c2.8,0 5.3,0.7 7.5,2.1c2.2,1.4 3.7,3.5 4.5,6.4c1.1,-2.5 2.7,-4.5 4.9,-6.1c2.2,-1.6 4.8,-2.4 7.9,-2.4c3.5,0 6.5,1.1 8.9,3.3c2.4,2.2 3.7,5.6 3.7,10.2l0,18.2l6.1,0l0,5.5z"/>
    <path d="m241.2,72.8l-13.2,0l0,-7.2c-1.2,2.2 -2.8,4.1 -4.9,5.6c-2.1,1.6 -4.8,2.4 -8.3,2.4c-4.8,0 -8.7,-1.6 -11.6,-4.9c-2.9,-3.2 -4.3,-7.7 -4.3,-13.3c0,-5 1.3,-9.6 4,-13.7c2.6,-4.1 6.9,-6.2 12.8,-6.2c5.7,0 9.8,2.2 12.3,6.5l0,-19.7l-8.6,0l0,-5.6l15.8,0l0,50.6l6,0l0,5.5zm-13.3,-16.8l0,-4.4c-0.1,-3 -1.2,-5.5 -3.2,-7.3c-2,-1.8 -4.4,-2.8 -7.2,-2.8c-3.6,0 -6.3,1.3 -8.2,3.9c-1.9,2.6 -2.8,5.8 -2.8,9.6c0,4.1 1,7.3 3,9.5c2,2.2 4.5,3.3 7.4,3.3c3.2,0 5.8,-1.3 7.8,-3.8c2.1,-2.6 3.1,-5.3 3.2,-8z"/>
    <path d="m286.4,72.8l-19.3,0l0,-5.5l6,0l0,-15.8c0,-3.7 -0.7,-6.3 -2.2,-7.9c-1.4,-1.6 -3.4,-2.3 -5.7,-2.3c-3.1,0 -5.6,1 -7.4,3c-1.8,2 -2.8,4.4 -2.9,7l0,15.9l6,0l0,5.5l-19.3,0l0,-5.5l6,0l0,-25.2l-6.2,0l0,-5.6l13.6,0l0,6.2c2.6,-4.6 6.8,-6.9 12.7,-6.9c3.6,0 6.7,1.1 9.2,3.3c2.5,2.2 3.7,5.6 3.7,10.2l0,18.2l6,0l0,5.4l-0.2,0z"/>
   </g>
  </symbol>
  <symbol height="104.2" id="svg_12" width="361" xml:space="preserve" xmlns="http://www.w3.org/2000/svg" xmlns:svg="http://www.w3.org/2000/svg">
   <style type="text/css">.logo-m{fill:#1870f0;}
  .logo-text{fill:#15141a;}</style>
   <style class="darkreader darkreader--sync"/>
   <g class="layer">
    <title>Layer 1</title>
    <g class="logo-text" id="svg_8">
     <path d="m119.17,69.07l-17.1,0l0,-5.6l3.8,0l0,-16.08c0,-3.77 -0.7,-6.41 -2.1,-8.04c-1.4,-1.63 -3.3,-2.34 -5.7,-2.34c-3.2,0 -5.6,1.12 -7.2,3.46s-2.4,4.68 -2.5,7.02l0,15.87l6,0l0,5.6l-17.1,0l0,-5.6l3.8,0l0,-15.98c0,-3.87 -0.7,-6.51 -2.1,-8.04c-1.4,-1.53 -3.3,-2.34 -5.6,-2.34c-3.2,0 -5.5,1.12 -7.2,3.36c-1.6,2.24 -2.4,4.58 -2.5,7.02l0,16.08l6.9,0l0,5.6l-20.2,0l0,-5.6l6,0l0,-25.74l-6.1,0l0,-5.7l13.4,0l0,6.51c1.2,-2.14 2.7,-3.87 4.7,-5.29c2,-1.32 4.4,-2.04 7.3,-2.04c2.8,0 5.3,0.71 7.5,2.14c2.2,1.42 3.7,3.56 4.5,6.51c1.1,-2.54 2.7,-4.58 4.9,-6.21c2.2,-1.63 4.8,-2.44 7.9,-2.44c3.5,0 6.5,1.12 8.9,3.36c2.4,2.24 3.7,5.7 3.7,10.38l0,18.52l6.1,0l0,5.6l0,0.01z" id="svg_11"/>
     <path d="m161.67,69.07l-13.2,0l0,-7.33c-1.2,2.24 -2.8,4.17 -4.9,5.7c-2.1,1.63 -4.8,2.44 -8.3,2.44c-4.8,0 -8.7,-1.63 -11.6,-4.99c-2.9,-3.26 -4.3,-7.84 -4.3,-13.53c0,-5.09 1.3,-9.77 4,-13.94c2.6,-4.17 6.9,-6.31 12.8,-6.31c5.7,0 9.8,2.24 12.3,6.61l0,-20.05l-8.6,0l0,-5.7l15.8,0l0,51.49l6,0l0,5.6l0,0.01zm-13.3,-17.1l0,-4.48c-0.1,-3.05 -1.2,-5.6 -3.2,-7.43c-2,-1.83 -4.4,-2.85 -7.2,-2.85c-3.6,0 -6.3,1.32 -8.2,3.97c-1.9,2.65 -2.8,5.9 -2.8,9.77c0,4.17 1,7.43 3,9.67c2,2.24 4.5,3.36 7.4,3.36c3.2,0 5.8,-1.32 7.8,-3.87c2.1,-2.65 3.1,-5.39 3.2,-8.14z" id="svg_10"/>
     <path d="m206.87,69.07l-19.3,0l0,-5.6l6,0l0,-16.08c0,-3.77 -0.7,-6.41 -2.2,-8.04c-1.4,-1.63 -3.4,-2.34 -5.7,-2.34c-3.1,0 -5.6,1.02 -7.4,3.05c-1.8,2.04 -2.8,4.48 -2.9,7.12l0,16.18l6,0l0,5.6l-19.3,0l0,-5.6l6,0l0,-25.64l-6.2,0l0,-5.7l13.6,0l0,6.31c2.6,-4.68 6.8,-7.02 12.7,-7.02c3.6,0 6.7,1.12 9.2,3.36c2.5,2.24 3.7,5.7 3.7,10.38l0,18.52l6,0l0,5.49l-0.2,0l0,0.01z" id="svg_9"/>
    </g>
    <g class="logo-text" id="svg_4">
     <path d="m119.17,69.07l-17.1,0l0,-5.6l3.8,0l0,-16.08c0,-3.77 -0.7,-6.41 -2.1,-8.04c-1.4,-1.63 -3.3,-2.34 -5.7,-2.34c-3.2,0 -5.6,1.12 -7.2,3.46s-2.4,4.68 -2.5,7.02l0,15.87l6,0l0,5.6l-17.1,0l0,-5.6l3.8,0l0,-15.98c0,-3.87 -0.7,-6.51 -2.1,-8.04c-1.4,-1.53 -3.3,-2.34 -5.6,-2.34c-3.2,0 -5.5,1.12 -7.2,3.36c-1.6,2.24 -2.4,4.58 -2.5,7.02l0,16.08l6.9,0l0,5.6l-20.2,0l0,-5.6l6,0l0,-25.74l-6.1,0l0,-5.7l13.4,0l0,6.51c1.2,-2.14 2.7,-3.87 4.7,-5.29c2,-1.32 4.4,-2.04 7.3,-2.04c2.8,0 5.3,0.71 7.5,2.14c2.2,1.42 3.7,3.56 4.5,6.51c1.1,-2.54 2.7,-4.58 4.9,-6.21c2.2,-1.63 4.8,-2.44 7.9,-2.44c3.5,0 6.5,1.12 8.9,3.36c2.4,2.24 3.7,5.7 3.7,10.38l0,18.52l6.1,0l0,5.6l0,0.01z" id="svg_7"/>
     <path d="m161.67,69.07l-13.2,0l0,-7.33c-1.2,2.24 -2.8,4.17 -4.9,5.7c-2.1,1.63 -4.8,2.44 -8.3,2.44c-4.8,0 -8.7,-1.63 -11.6,-4.99c-2.9,-3.26 -4.3,-7.84 -4.3,-13.53c0,-5.09 1.3,-9.77 4,-13.94c2.6,-4.17 6.9,-6.31 12.8,-6.31c5.7,0 9.8,2.24 12.3,6.61l0,-20.05l-8.6,0l0,-5.7l15.8,0l0,51.49l6,0l0,5.6l0,0.01zm-13.3,-17.1l0,-4.48c-0.1,-3.05 -1.2,-5.6 -3.2,-7.43c-2,-1.83 -4.4,-2.85 -7.2,-2.85c-3.6,0 -6.3,1.32 -8.2,3.97c-1.9,2.65 -2.8,5.9 -2.8,9.77c0,4.17 1,7.43 3,9.67c2,2.24 4.5,3.36 7.4,3.36c3.2,0 5.8,-1.32 7.8,-3.87c2.1,-2.65 3.1,-5.39 3.2,-8.14z" id="svg_6"/>
     <path d="m206.87,69.07l-19.3,0l0,-5.6l6,0l0,-16.08c0,-3.77 -0.7,-6.41 -2.2,-8.04c-1.4,-1.63 -3.4,-2.34 -5.7,-2.34c-3.1,0 -5.6,1.02 -7.4,3.05c-1.8,2.04 -2.8,4.48 -2.9,7.12l0,16.18l6,0l0,5.6l-19.3,0l0,-5.6l6,0l0,-25.64l-6.2,0l0,-5.7l13.6,0l0,6.31c2.6,-4.68 6.8,-7.02 12.7,-7.02c3.6,0 6.7,1.12 9.2,3.36c2.5,2.24 3.7,5.7 3.7,10.38l0,18.52l6,0l0,5.49l-0.2,0l0,0.01z" id="svg_5"/>
    </g>
   </g>
  </symbol>
 </defs>
 <g class="layer">
  <title>Layer 1</title>
  <use id="svg_3" transform="matrix(7.62108, 0, 0, 7.10266, 705.399, 211.342)" x="-177.25" xlink:href="#svg_2" y="-102.57"/>
  <use id="svg_13" transform="matrix(0.313912, 0, 0, 0.27495, -68.1782, 3.88088)" x="163.79" xlink:href="#svg_12" y="29.96"/>
 </g>
</svg>